<svg xmlns="http://www.w3.org/2000/svg" viewBox="0 0 512 512" role="img" aria-labelledby="title desc">
  <title id="title">Azure Carbon SRE pulse logo</title>
  <desc id="desc">A cloud containing a carbon insight pulse and leaf.</desc>
  <defs>
    <linearGradient id="cloud" x1="94" y1="128" x2="416" y2="391" gradientUnits="userSpaceOnUse">
      <stop stop-color="#65C9F2"/>
      <stop offset="1" stop-color="#0067B1"/>
    </linearGradient>
  </defs>
  <rect width="512" height="512" rx="112" fill="#061522"/>
  <path d="M112 391c-47 0-85-38-85-85 0-43 32-79 74-84 15-68 76-118 149-118 66 0 123 40 146 98 8-2 16-3 24-3 52 0 94 42 94 94s-42 98-94 98H112Z" fill="url(#cloud)"/>
  <path d="M88 292h73l31-54 49 107 47-82h136" fill="none" stroke="#E8FFF1" stroke-linecap="round" stroke-linejoin="round" stroke-width="18"/>
  <path d="M320 353c0-52 38-84 87-91-7 58-39 92-87 91Z" fill="#A7E55C"/>
  <path d="M327 346c20-24 42-43 67-62" fill="none" stroke="#2C7A4B" stroke-linecap="round" stroke-width="9"/>
</svg>
